Coordinates
version=1
nRows=38
nColumns=12
inDegrees=yes

Units are S.I. units (second, meters, Newtons, ...)
Angles are in degrees

endheader
time	SC_y	SC_z	SC_x	AC_y	AC_z	AC_x	GH_y	GH_z	GH_yy	EL_x	PS_y
       0.0              -44.38          26.31          21.66          62.61          5.406          6.515         -148.2          15.28          55.72          76.73          111.9
  0.004168              -44.38          26.31          21.67          62.61          5.404          6.514         -148.1          15.28          55.71          76.73          111.9
  0.008335              -44.38           26.3          21.67          62.62          5.402          6.512         -148.1          15.28          55.69          76.73          111.9
    0.0125              -44.38           26.3          21.68          62.62            5.4           6.51         -148.1          15.28          55.67          76.73          111.9
   0.01667              -44.38           26.3          21.69          62.62          5.398          6.509         -148.0          15.28          55.65          76.73          111.9
   0.02084              -44.38           26.3           21.7          62.62          5.396          6.507         -148.0          15.28          55.63          76.73          111.9
   0.02501              -44.37           26.3          21.71          62.62          5.394          6.505         -147.9          15.28          55.61          76.73          111.9
   0.02917              -44.37           26.3          21.72          62.62          5.392          6.502         -147.8          15.28          55.59          76.73          111.9
   0.03334              -44.37           26.3          21.73          62.62          5.389            6.5         -147.8          15.28          55.56          76.73          111.9
   0.03751              -44.37           26.3          21.74          62.63          5.386          6.497         -147.7          15.28          55.53          76.73          111.9
   0.04168              -44.36           26.3          21.76          62.63          5.383          6.495         -147.6          15.27           55.5          76.73          111.9
   0.04584              -44.36           26.3          21.77          62.63           5.38          6.492         -147.6          15.27          55.47          76.73          111.9
   0.05001              -44.36           26.3          21.79          62.63          5.377          6.489         -147.5          15.27          55.44          76.73          111.9
   0.05418              -44.36           26.3           21.8          62.63          5.373          6.485         -147.4          15.27           55.4          76.73          111.9
   0.05835              -44.35           26.3          21.82          62.64          5.369          6.481         -147.3          15.27          55.36          76.73          111.9
   0.06252              -44.35           26.3          21.84          62.64          5.365          6.477         -147.2          15.26          55.32          76.72          111.9
   0.06668              -44.35          26.29          21.86          62.64           5.36          6.473         -147.1          15.26          55.27          76.72          111.9
   0.07085              -44.34          26.29          21.88          62.65          5.355          6.468         -146.9          15.26          55.22          76.72          111.9
   0.07502              -44.34          26.29          21.91          62.65          5.349          6.463         -146.8          15.26          55.17          76.72          111.9
   0.07919              -44.33          26.29          21.94          62.65          5.343          6.457         -146.7          15.25          55.11          76.72          111.9
   0.08335              -44.33          26.29          21.97          62.66          5.336          6.451         -146.5          15.25          55.04          76.72          111.9
   0.08752              -44.32          26.29           22.0          62.66          5.329          6.444         -146.3          15.25          54.97          76.72          111.9
   0.09169              -44.31          26.29          22.04          62.67          5.321          6.437         -146.1          15.24          54.89          76.72          111.9
   0.09586               -44.3          26.28          22.08          62.67          5.312          6.428         -145.9          15.24           54.8          76.72          111.8
       0.1               -44.3          26.28          22.12          62.68          5.302          6.419         -145.6          15.23           54.7          76.72          111.8
    0.1042              -44.29          26.28          22.17          62.69           5.29          6.408         -145.4          15.23          54.59          76.72          111.8
    0.1084              -44.28          26.27          22.23           62.7          5.278          6.397         -145.0          15.22          54.46          76.71          111.8
    0.1125              -44.26          26.27          22.29          62.71          5.264          6.384         -144.7          15.21          54.32          76.71          111.8
    0.1167              -44.25          26.27          22.36          62.72          5.247          6.369         -144.3           15.2          54.16          76.71          111.8
    0.1209              -44.24          26.26          22.44          62.73          5.229          6.352         -143.9          15.19          53.98          76.71          111.8
     0.125              -44.22          26.26          22.53          62.74          5.208          6.333         -143.3          15.18          53.78          76.71          111.8
    0.1292               -44.2          26.25          22.64          62.76          5.185           6.31         -142.8          15.17          53.54           76.7          111.7
    0.1334              -44.18          26.25          22.76          62.78          5.157          6.285         -142.1          15.16          53.27           76.7          111.7
    0.1375              -44.15          26.24           22.9           62.8          5.125          6.255         -141.3          15.14          52.96           76.7          111.7
    0.1417              -44.12          26.23          23.07          62.82          5.088           6.22         -140.4          15.12          52.59          76.69          111.6
    0.1459              -44.08          26.22          23.27          62.85          5.043           6.18         -139.3           15.1          52.15          76.69          111.6
      0.15              -44.04          26.21           23.5          62.88          4.991          6.131         -138.0          15.07          51.63          76.68          111.6
    0.1542              -43.98          26.19          23.78          62.92          4.928          6.073         -136.5          15.04          51.01          76.67          111.5
